<?xml version="1.0" encoding="UTF-8" standalone="no"?>
<!-- Created with Inkscape (http://www.inkscape.org/) -->

<svg
   width="134.42586mm"
   height="67.312927mm"
   viewBox="0 0 134.42586 67.312929"
   version="1.1"
   id="svg5"
   xmlns="http://www.w3.org/2000/svg"
   xmlns:svg="http://www.w3.org/2000/svg">
  <defs
     id="defs2" />
  <g
     id="layer1"
     transform="translate(-36.456183,-60.837897)">
    <path
       d="m 84.807282,91.2043 -0.957736,4.209903 h 1.922362 z m -1.240234,-1.86035 h 2.487357 l 2.776745,10.287047 h -2.032605 l -0.633897,-2.542479 h -2.721623 l -0.620117,2.542479 h -2.032605 z"
       id="path2576"
       style="font-weight:bold;font-size:14.1111px;font-family:'DejaVu Sans Mono';-inkscape-font-specification:'DejaVu Sans Mono Bold';letter-spacing:-3.0189px;fill:none;stroke:#000000;stroke-width:0.2" />
    <path
       d="m 88.864602,94.959451 v 3.045462 h 1.350477 q 0.971516,0 1.357366,-0.330729 0.392741,-0.330729 0.392741,-1.150661 0,-0.833712 -0.406521,-1.198892 -0.406521,-0.36518 -1.343586,-0.36518 z m 0,-4.010088 v 2.390894 h 1.350477 q 0.7717,0 1.095539,-0.275607 0.330729,-0.275608 0.330729,-0.909505 0,-0.633897 -0.337619,-0.916394 -0.330729,-0.289388 -1.088649,-0.289388 z m -1.963703,-1.619194 h 3.31418 q 1.715656,0 2.576929,0.654568 0.868163,0.647677 0.868163,1.943032 0,0.992187 -0.509873,1.550292 -0.509874,0.558105 -1.495171,0.647677 1.178222,0.117134 1.770778,0.792372 0.599446,0.675238 0.599446,1.887911 0,1.48828 -0.895724,2.156628 -0.895724,0.668348 -2.914548,0.668348 h -3.31418 z"
       id="path2578"
       style="font-weight:bold;font-size:14.1111px;font-family:'DejaVu Sans Mono';-inkscape-font-specification:'DejaVu Sans Mono Bold';letter-spacing:-3.0189px;fill:none;stroke:#000000;stroke-width:0.2" />
    <path
       d="m 95.760679,90.983814 q -0.778591,0 -1.13688,0.833712 -0.35829,0.826822 -0.35829,2.680282 0,1.84657 0.35829,2.680283 0.358289,0.826822 1.13688,0.826822 0.785482,0 1.143771,-0.826822 0.35829,-0.833713 0.35829,-2.680283 0,-1.85346 -0.35829,-2.680282 -0.358289,-0.833712 -1.143771,-0.833712 z m -3.610457,3.513994 q 0,-2.638941 0.909505,-3.989417 0.916394,-1.350476 2.700952,-1.350476 1.791449,0 2.700953,1.350476 0.916395,1.350476 0.916395,3.989417 0,2.632051 -0.916395,3.982528 -0.909504,1.350476 -2.700953,1.350476 -1.784558,0 -2.700952,-1.350476 -0.909505,-1.350477 -0.909505,-3.982528 z"
       id="path2580"
       style="font-weight:bold;font-size:14.1111px;font-family:'DejaVu Sans Mono';-inkscape-font-specification:'DejaVu Sans Mono Bold';letter-spacing:-3.0189px;fill:none;stroke:#000000;stroke-width:0.2" />
    <path
       d="M 97.723383,95.834504 V 89.34395 h 2.032604 v 7.000428 q 0,0.771701 0.392743,1.212673 0.39274,0.434082 1.08865,0.434082 0.69591,0 1.08865,-0.434082 0.39274,-0.440972 0.39274,-1.212673 V 89.34395 h 2.0326 v 6.490554 q 0,2.094617 -0.83371,3.045462 -0.83371,0.950846 -2.68028,0.950846 -1.839682,0 -2.680285,-0.950846 -0.833712,-0.950845 -0.833712,-3.045462 z"
       id="path2582"
       style="font-weight:bold;font-size:14.1111px;font-family:'DejaVu Sans Mono';-inkscape-font-specification:'DejaVu Sans Mono Bold';letter-spacing:-3.0189px;fill:none;stroke:#000000;stroke-width:0.2" />
    <path
       d="m 107.73382,99.630997 h -2.0326 v -8.50938 h -2.61138 V 89.34395 h 7.25536 v 1.777667 h -2.61138 z"
       id="path2584"
       style="font-weight:bold;font-size:14.1111px;font-family:'DejaVu Sans Mono';-inkscape-font-specification:'DejaVu Sans Mono Bold';letter-spacing:-3.0189px;fill:none;stroke:#000000;stroke-width:0.2" />
    <path
       d="M 114.15348,95.834504 V 89.34395 h 2.0326 v 7.000428 q 0,0.771701 0.39274,1.212673 0.39274,0.434082 1.08865,0.434082 0.69591,0 1.08865,-0.434082 0.39274,-0.440972 0.39274,-1.212673 V 89.34395 h 2.03261 v 6.490554 q 0,2.094617 -0.83371,3.045462 -0.83372,0.950846 -2.68029,0.950846 -1.83968,0 -2.68028,-0.950846 -0.83371,-0.950845 -0.83371,-3.045462 z"
       id="path2586"
       style="font-weight:bold;font-size:14.1111px;font-family:'DejaVu Sans Mono';-inkscape-font-specification:'DejaVu Sans Mono Bold';letter-spacing:-3.0189px;fill:none;stroke:#000000;stroke-width:0.2" />
    <path
       d="m 122.41381,95.117925 q -1.53651,-0.585666 -2.08083,-1.226453 -0.54433,-0.647677 -0.54433,-1.736327 0,-1.398707 0.89573,-2.197969 0.89572,-0.799261 2.45979,-0.799261 0.70969,0 1.41938,0.165364 0.70969,0.158474 1.4056,0.475423 v 1.984373 q -0.65457,-0.461642 -1.32981,-0.702799 -0.67524,-0.241156 -1.33669,-0.241156 -0.73725,0 -1.12999,0.296278 -0.39274,0.296278 -0.39274,0.847493 0,0.427191 0.28249,0.709689 0.28939,0.275607 1.1989,0.613226 l 0.87505,0.330729 q 1.24023,0.454752 1.8259,1.205783 0.58566,0.75103 0.58566,1.894801 0,1.557182 -0.92328,2.328882 -0.9164,0.764811 -2.77675,0.764811 -0.76481,0 -1.53651,-0.186035 -0.76481,-0.179145 -1.48139,-0.537434 v -2.101507 q 0.81305,0.578776 1.57097,0.861273 0.76481,0.282498 1.50895,0.282498 0.75103,0 1.16444,-0.337619 0.41341,-0.34451 0.41341,-0.957736 0,-0.461643 -0.27561,-0.806152 -0.27561,-0.351399 -0.79926,-0.551215 z"
       id="path2588"
       style="font-weight:bold;font-size:14.1111px;font-family:'DejaVu Sans Mono';-inkscape-font-specification:'DejaVu Sans Mono Bold';letter-spacing:-3.0189px;fill:none;stroke:#000000;stroke-width:0.2" />
  </g>
</svg>
